<mxfile host="app.diagrams.net" modified="2022-11-21T01:58:04.507Z" agent="5.0 (Windows NT 10.0; Win64; x64) AppleWebKit/537.36 (KHTML, like Gecko) Chrome/107.0.0.0 Safari/537.36 Edg/107.0.1418.52" etag="QYrV3brUXS4w81_J-UM4" version="20.5.3" type="github">
  <diagram id="nQoRRkbfBHXPPLP0d9YH" name="Page-1">
    <mxGraphModel dx="3020" dy="1678" grid="1" gridSize="10" guides="1" tooltips="1" connect="1" arrows="1" fold="1" page="1" pageScale="1" pageWidth="850" pageHeight="1100" math="0" shadow="0">
      <root>
        <mxCell id="0" />
        <mxCell id="1" parent="0" />
        <mxCell id="6R5-T_77ddnY8GVQOSvM-1" value="End-User Appointment Request" style="edgeStyle=orthogonalEdgeStyle;rounded=0;orthogonalLoop=1;jettySize=auto;html=1;entryX=0.5;entryY=0;entryDx=0;entryDy=0;" parent="1" source="6R5-T_77ddnY8GVQOSvM-2" target="6R5-T_77ddnY8GVQOSvM-7" edge="1">
          <mxGeometry x="-0.1429" relative="1" as="geometry">
            <mxPoint as="offset" />
          </mxGeometry>
        </mxCell>
        <mxCell id="6R5-T_77ddnY8GVQOSvM-2" value="Internal User" style="whiteSpace=wrap;align=center;verticalAlign=middle;fontStyle=1;strokeWidth=3;fillColor=#FFFFCC" parent="1" vertex="1">
          <mxGeometry x="55" y="60" width="90" height="60" as="geometry" />
        </mxCell>
        <mxCell id="6R5-T_77ddnY8GVQOSvM-7" value="&lt;p style=&quot;margin: 0px; margin-top: 4px; text-align: center; text-decoration: underline;&quot;&gt;&lt;strong&gt;3.0&lt;/strong&gt;&lt;/p&gt;&lt;hr&gt;&lt;p style=&quot;margin: 0px; margin-left: 8px;&quot;&gt;View Schedule&lt;/p&gt;" style="verticalAlign=middle;align=center;overflow=fill;fontSize=12;fontFamily=Helvetica;html=1;rounded=1;fontStyle=1;strokeWidth=3;fillColor=#E6FFCC" parent="1" vertex="1">
          <mxGeometry x="20" y="190" width="160" height="65" as="geometry" />
        </mxCell>
        <mxCell id="6R5-T_77ddnY8GVQOSvM-37" style="edgeStyle=orthogonalEdgeStyle;rounded=0;orthogonalLoop=1;jettySize=auto;html=1;entryX=0;entryY=0.5;entryDx=0;entryDy=0;exitX=0.5;exitY=1;exitDx=0;exitDy=0;" parent="1" source="6R5-T_77ddnY8GVQOSvM-7" target="6R5-T_77ddnY8GVQOSvM-38" edge="1">
          <mxGeometry relative="1" as="geometry">
            <mxPoint x="355" y="410" as="targetPoint" />
            <mxPoint x="325" y="342.48571428571427" as="sourcePoint" />
          </mxGeometry>
        </mxCell>
        <mxCell id="6R5-T_77ddnY8GVQOSvM-39" value="Appointments List" style="edgeLabel;html=1;align=center;verticalAlign=middle;resizable=0;points=[];" parent="6R5-T_77ddnY8GVQOSvM-37" vertex="1" connectable="0">
          <mxGeometry x="-0.282" y="4" relative="1" as="geometry">
            <mxPoint x="-4" y="-56" as="offset" />
          </mxGeometry>
        </mxCell>
        <mxCell id="6R5-T_77ddnY8GVQOSvM-15" value="Booked Appointments" style="edgeStyle=orthogonalEdgeStyle;rounded=0;orthogonalLoop=1;jettySize=auto;html=1;exitX=0;exitY=0.5;exitDx=0;exitDy=0;entryX=1;entryY=0.5;entryDx=0;entryDy=0;" parent="1" source="6R5-T_77ddnY8GVQOSvM-18" target="6R5-T_77ddnY8GVQOSvM-7" edge="1">
          <mxGeometry y="-12" relative="1" as="geometry">
            <mxPoint as="offset" />
            <Array as="points" />
          </mxGeometry>
        </mxCell>
        <mxCell id="6R5-T_77ddnY8GVQOSvM-18" value="&lt;span style=&quot;white-space: pre;&quot;&gt;	&lt;/span&gt;Appointment Database" style="html=1;dashed=0;whitespace=wrap;shape=mxgraph.dfd.dataStoreID;align=left;spacingLeft=3;points=[[0,0],[0.5,0],[1,0],[0,0.5],[1,0.5],[0,1],[0.5,1],[1,1]];fillColor=#CDA2BE;" parent="1" vertex="1">
          <mxGeometry x="350" y="207.5" width="160" height="30" as="geometry" />
        </mxCell>
        <mxCell id="6R5-T_77ddnY8GVQOSvM-40" style="edgeStyle=orthogonalEdgeStyle;rounded=0;orthogonalLoop=1;jettySize=auto;html=1;entryX=0;entryY=0.5;entryDx=0;entryDy=0;" parent="1" source="6R5-T_77ddnY8GVQOSvM-38" target="6R5-T_77ddnY8GVQOSvM-41" edge="1">
          <mxGeometry relative="1" as="geometry">
            <mxPoint x="620" y="540" as="targetPoint" />
          </mxGeometry>
        </mxCell>
        <mxCell id="6R5-T_77ddnY8GVQOSvM-42" value="Appointment selection" style="edgeLabel;html=1;align=center;verticalAlign=middle;resizable=0;points=[];" parent="6R5-T_77ddnY8GVQOSvM-40" vertex="1" connectable="0">
          <mxGeometry x="-0.1292" y="2" relative="1" as="geometry">
            <mxPoint x="12" y="-10" as="offset" />
          </mxGeometry>
        </mxCell>
        <mxCell id="6R5-T_77ddnY8GVQOSvM-38" value="&lt;p style=&quot;margin: 0px; margin-top: 4px; text-align: center; text-decoration: underline;&quot;&gt;&lt;strong&gt;3.1&lt;/strong&gt;&lt;/p&gt;&lt;hr&gt;&lt;p style=&quot;margin: 0px; margin-left: 8px;&quot;&gt;Select an Appointment&lt;/p&gt;" style="verticalAlign=middle;align=center;overflow=fill;fontSize=12;fontFamily=Helvetica;html=1;rounded=1;fontStyle=1;strokeWidth=3;fillColor=#E6FFCC" parent="1" vertex="1">
          <mxGeometry x="200" y="380" width="160" height="65" as="geometry" />
        </mxCell>
        <mxCell id="-NJ61sB6xc6kjOLsdOyA-2" value="Appointment Details" style="edgeStyle=orthogonalEdgeStyle;rounded=0;orthogonalLoop=1;jettySize=auto;html=1;entryX=1;entryY=0.5;entryDx=0;entryDy=0;exitX=0.5;exitY=0;exitDx=0;exitDy=0;" edge="1" parent="1" source="6R5-T_77ddnY8GVQOSvM-41" target="6R5-T_77ddnY8GVQOSvM-2">
          <mxGeometry x="-0.4323" relative="1" as="geometry">
            <mxPoint as="offset" />
          </mxGeometry>
        </mxCell>
        <mxCell id="6R5-T_77ddnY8GVQOSvM-41" value="&lt;p style=&quot;margin: 0px; margin-top: 4px; text-align: center; text-decoration: underline;&quot;&gt;&lt;strong&gt;3.2&lt;/strong&gt;&lt;/p&gt;&lt;hr&gt;&lt;p style=&quot;margin: 0px; margin-left: 8px;&quot;&gt;Display Appointment Details&lt;/p&gt;" style="verticalAlign=middle;align=center;overflow=fill;fontSize=12;fontFamily=Helvetica;html=1;rounded=1;fontStyle=1;strokeWidth=3;fillColor=#E6FFCC" parent="1" vertex="1">
          <mxGeometry x="540" y="380" width="180" height="65" as="geometry" />
        </mxCell>
        <mxCell id="-NJ61sB6xc6kjOLsdOyA-3" value="User Info" style="edgeStyle=orthogonalEdgeStyle;rounded=0;orthogonalLoop=1;jettySize=auto;html=1;entryX=1.005;entryY=0.609;entryDx=0;entryDy=0;entryPerimeter=0;" edge="1" parent="1" source="6R5-T_77ddnY8GVQOSvM-43" target="6R5-T_77ddnY8GVQOSvM-41">
          <mxGeometry relative="1" as="geometry" />
        </mxCell>
        <mxCell id="6R5-T_77ddnY8GVQOSvM-43" value="&lt;span style=&quot;white-space: pre;&quot;&gt;	&lt;/span&gt;EndUser Database" style="html=1;dashed=0;whitespace=wrap;shape=mxgraph.dfd.dataStoreID;align=left;spacingLeft=3;points=[[0,0],[0.5,0],[1,0],[0,0.5],[1,0.5],[0,1],[0.5,1],[1,1]];fillColor=#CDA2BE;" parent="1" vertex="1">
          <mxGeometry x="790" y="460" width="149" height="30" as="geometry" />
        </mxCell>
        <mxCell id="6R5-T_77ddnY8GVQOSvM-46" value="QuoteLines" style="edgeStyle=orthogonalEdgeStyle;rounded=0;orthogonalLoop=1;jettySize=auto;html=1;entryX=1;entryY=0.25;entryDx=0;entryDy=0;" parent="1" source="6R5-T_77ddnY8GVQOSvM-45" target="6R5-T_77ddnY8GVQOSvM-41" edge="1">
          <mxGeometry relative="1" as="geometry" />
        </mxCell>
        <mxCell id="6R5-T_77ddnY8GVQOSvM-45" value="&lt;span style=&quot;white-space: pre;&quot;&gt;	&lt;/span&gt;Quote Database" style="html=1;dashed=0;whitespace=wrap;shape=mxgraph.dfd.dataStoreID;align=left;spacingLeft=3;points=[[0,0],[0.5,0],[1,0],[0,0.5],[1,0.5],[0,1],[0.5,1],[1,1]];fillColor=#CDA2BE;" parent="1" vertex="1">
          <mxGeometry x="790" y="330" width="160" height="30" as="geometry" />
        </mxCell>
        <mxCell id="-NJ61sB6xc6kjOLsdOyA-8" value="Vehicle Info" style="edgeStyle=orthogonalEdgeStyle;rounded=0;orthogonalLoop=1;jettySize=auto;html=1;entryX=0.5;entryY=1;entryDx=0;entryDy=0;" edge="1" parent="1" source="-NJ61sB6xc6kjOLsdOyA-7" target="6R5-T_77ddnY8GVQOSvM-41">
          <mxGeometry relative="1" as="geometry" />
        </mxCell>
        <mxCell id="-NJ61sB6xc6kjOLsdOyA-7" value="&lt;span style=&quot;white-space: pre;&quot;&gt;	&lt;/span&gt;VehicleType Database" style="html=1;dashed=0;whitespace=wrap;shape=mxgraph.dfd.dataStoreID;align=left;spacingLeft=3;points=[[0,0],[0.5,0],[1,0],[0,0.5],[1,0.5],[0,1],[0.5,1],[1,1]];fillColor=#CDA2BE;" vertex="1" parent="1">
          <mxGeometry x="550" y="510" width="160" height="30" as="geometry" />
        </mxCell>
      </root>
    </mxGraphModel>
  </diagram>
</mxfile>
